<svg width="1600" height="980" viewBox="0 0 1600 980" fill="none" xmlns="http://www.w3.org/2000/svg">
  <rect width="1600" height="980" rx="48" fill="#FFF7ED"/>
  <rect x="44" y="44" width="1512" height="892" rx="40" fill="#FEFEFE"/>
  <rect x="86" y="92" width="934" height="796" rx="32" fill="#FFF1E8"/>
  <rect x="1048" y="92" width="466" height="796" rx="32" fill="#111827"/>
  <rect x="126" y="132" width="224" height="56" rx="28" fill="#F97316"/>
  <rect x="372" y="132" width="168" height="56" rx="28" fill="#FDBA74"/>
  <rect x="562" y="132" width="184" height="56" rx="28" fill="#FED7AA"/>
  <rect x="126" y="222" width="414" height="210" rx="28" fill="#FFFFFF"/>
  <rect x="568" y="222" width="414" height="210" rx="28" fill="#FFFFFF"/>
  <rect x="126" y="460" width="414" height="210" rx="28" fill="#FFFFFF"/>
  <rect x="568" y="460" width="414" height="210" rx="28" fill="#FFFFFF"/>
  <rect x="160" y="256" width="172" height="100" rx="22" fill="#FDE68A"/>
  <rect x="602" y="256" width="172" height="100" rx="22" fill="#FECACA"/>
  <rect x="160" y="494" width="172" height="100" rx="22" fill="#BFDBFE"/>
  <rect x="602" y="494" width="172" height="100" rx="22" fill="#BBF7D0"/>
  <rect x="360" y="256" width="136" height="22" rx="11" fill="#334155"/>
  <rect x="360" y="294" width="108" height="16" rx="8" fill="#94A3B8"/>
  <rect x="360" y="334" width="92" height="36" rx="18" fill="#F97316"/>
  <rect x="802" y="256" width="136" height="22" rx="11" fill="#334155"/>
  <rect x="802" y="294" width="108" height="16" rx="8" fill="#94A3B8"/>
  <rect x="802" y="334" width="92" height="36" rx="18" fill="#F97316"/>
  <rect x="360" y="494" width="136" height="22" rx="11" fill="#334155"/>
  <rect x="360" y="532" width="108" height="16" rx="8" fill="#94A3B8"/>
  <rect x="360" y="572" width="92" height="36" rx="18" fill="#F97316"/>
  <rect x="802" y="494" width="136" height="22" rx="11" fill="#334155"/>
  <rect x="802" y="532" width="108" height="16" rx="8" fill="#94A3B8"/>
  <rect x="802" y="572" width="92" height="36" rx="18" fill="#F97316"/>
  <rect x="1092" y="136" width="180" height="24" rx="12" fill="#FCD34D"/>
  <rect x="1092" y="188" width="378" height="96" rx="24" fill="#1F2937"/>
  <rect x="1126" y="222" width="120" height="18" rx="9" fill="#F8FAFC"/>
  <rect x="1126" y="254" width="88" height="14" rx="7" fill="#94A3B8"/>
  <rect x="1336" y="214" width="96" height="40" rx="20" fill="#22C55E"/>
  <rect x="1092" y="310" width="378" height="228" rx="28" fill="#1F2937"/>
  <rect x="1126" y="344" width="220" height="18" rx="9" fill="#F8FAFC"/>
  <rect x="1126" y="382" width="188" height="14" rx="7" fill="#94A3B8"/>
  <rect x="1126" y="432" width="306" height="14" rx="7" fill="#475569"/>
  <rect x="1126" y="470" width="306" height="14" rx="7" fill="#475569"/>
  <rect x="1092" y="566" width="378" height="132" rx="28" fill="#1F2937"/>
  <rect x="1126" y="604" width="132" height="14" rx="7" fill="#94A3B8"/>
  <rect x="1314" y="600" width="120" height="22" rx="11" fill="#F97316"/>
  <rect x="1126" y="650" width="162" height="18" rx="9" fill="#F8FAFC"/>
  <rect x="1304" y="646" width="130" height="26" rx="13" fill="#22C55E"/>
  <rect x="1092" y="724" width="180" height="96" rx="28" fill="#FCD34D"/>
  <rect x="1290" y="724" width="180" height="96" rx="28" fill="#FFFFFF"/>
</svg>
