<svg width="1600" height="980" viewBox="0 0 1600 980" fill="none" xmlns="http://www.w3.org/2000/svg">
  <rect width="1600" height="980" rx="48" fill="#FFF7ED"/>
  <rect x="44" y="44" width="1512" height="892" rx="40" fill="#0F172A"/>
  <rect x="92" y="92" width="1416" height="96" rx="28" fill="#111827"/>
  <rect x="134" y="128" width="224" height="24" rx="12" fill="#F8FAFC"/>
  <rect x="1260" y="122" width="204" height="36" rx="18" fill="#FACC15"/>
  <rect x="92" y="226" width="432" height="642" rx="32" fill="#111827"/>
  <rect x="584" y="226" width="432" height="642" rx="32" fill="#111827"/>
  <rect x="1076" y="226" width="432" height="642" rx="32" fill="#111827"/>
  <rect x="126" y="262" width="130" height="30" rx="15" fill="#FCD34D"/>
  <rect x="618" y="262" width="162" height="30" rx="15" fill="#F97316"/>
  <rect x="1110" y="262" width="108" height="30" rx="15" fill="#22C55E"/>
  <rect x="126" y="324" width="364" height="160" rx="28" fill="#1E293B"/>
  <rect x="160" y="356" width="170" height="18" rx="9" fill="#F8FAFC"/>
  <rect x="160" y="390" width="120" height="14" rx="7" fill="#94A3B8"/>
  <rect x="368" y="352" width="88" height="34" rx="17" fill="#FCD34D"/>
  <rect x="160" y="432" width="296" height="14" rx="7" fill="#475569"/>
  <rect x="126" y="516" width="364" height="160" rx="28" fill="#1E293B"/>
  <rect x="160" y="548" width="170" height="18" rx="9" fill="#F8FAFC"/>
  <rect x="160" y="582" width="120" height="14" rx="7" fill="#94A3B8"/>
  <rect x="368" y="544" width="88" height="34" rx="17" fill="#FCD34D"/>
  <rect x="160" y="624" width="296" height="14" rx="7" fill="#475569"/>
  <rect x="618" y="324" width="364" height="204" rx="28" fill="#1E293B"/>
  <rect x="652" y="356" width="170" height="18" rx="9" fill="#F8FAFC"/>
  <rect x="652" y="390" width="120" height="14" rx="7" fill="#94A3B8"/>
  <rect x="860" y="352" width="88" height="34" rx="17" fill="#F97316"/>
  <rect x="652" y="432" width="296" height="14" rx="7" fill="#475569"/>
  <rect x="652" y="470" width="296" height="14" rx="7" fill="#475569"/>
  <rect x="618" y="560" width="364" height="204" rx="28" fill="#1E293B"/>
  <rect x="652" y="592" width="170" height="18" rx="9" fill="#F8FAFC"/>
  <rect x="652" y="626" width="120" height="14" rx="7" fill="#94A3B8"/>
  <rect x="860" y="588" width="88" height="34" rx="17" fill="#F97316"/>
  <rect x="652" y="668" width="296" height="14" rx="7" fill="#475569"/>
  <rect x="1110" y="324" width="364" height="120" rx="28" fill="#1E293B"/>
  <rect x="1144" y="356" width="170" height="18" rx="9" fill="#F8FAFC"/>
  <rect x="1320" y="348" width="120" height="34" rx="17" fill="#22C55E"/>
  <rect x="1110" y="474" width="364" height="120" rx="28" fill="#1E293B"/>
  <rect x="1144" y="506" width="170" height="18" rx="9" fill="#F8FAFC"/>
  <rect x="1320" y="498" width="120" height="34" rx="17" fill="#22C55E"/>
  <rect x="1110" y="624" width="364" height="120" rx="28" fill="#1E293B"/>
  <rect x="1144" y="656" width="170" height="18" rx="9" fill="#F8FAFC"/>
  <rect x="1320" y="648" width="120" height="34" rx="17" fill="#22C55E"/>
</svg>
