<svg width="1600" height="980" viewBox="0 0 1600 980" fill="none" xmlns="http://www.w3.org/2000/svg">
  <rect width="1600" height="980" rx="48" fill="#F8FAFC"/>
  <rect x="56" y="56" width="1488" height="868" rx="40" fill="#FFFFFF"/>
  <rect x="98" y="98" width="288" height="784" rx="32" fill="#0F172A"/>
  <rect x="430" y="98" width="1072" height="784" rx="32" fill="#F8FAFC"/>
  <rect x="132" y="142" width="140" height="22" rx="11" fill="#E2E8F0"/>
  <rect x="132" y="212" width="220" height="56" rx="24" fill="#22C55E"/>
  <rect x="132" y="292" width="220" height="56" rx="24" fill="#1E293B"/>
  <rect x="132" y="372" width="220" height="56" rx="24" fill="#1E293B"/>
  <rect x="132" y="452" width="220" height="56" rx="24" fill="#1E293B"/>
  <rect x="478" y="140" width="260" height="24" rx="12" fill="#0F172A"/>
  <rect x="1290" y="132" width="164" height="40" rx="20" fill="#22C55E"/>
  <rect x="478" y="214" width="300" height="170" rx="28" fill="#FFFFFF"/>
  <rect x="810" y="214" width="300" height="170" rx="28" fill="#FFFFFF"/>
  <rect x="1142" y="214" width="300" height="170" rx="28" fill="#FFFFFF"/>
  <rect x="512" y="248" width="108" height="14" rx="7" fill="#94A3B8"/>
  <rect x="512" y="284" width="152" height="30" rx="15" fill="#0F172A"/>
  <rect x="512" y="330" width="220" height="18" rx="9" fill="#22C55E"/>
  <rect x="844" y="248" width="108" height="14" rx="7" fill="#94A3B8"/>
  <rect x="844" y="284" width="152" height="30" rx="15" fill="#0F172A"/>
  <rect x="844" y="330" width="220" height="18" rx="9" fill="#F97316"/>
  <rect x="1176" y="248" width="108" height="14" rx="7" fill="#94A3B8"/>
  <rect x="1176" y="284" width="152" height="30" rx="15" fill="#0F172A"/>
  <rect x="1176" y="330" width="220" height="18" rx="9" fill="#38BDF8"/>
  <rect x="478" y="426" width="628" height="408" rx="30" fill="#FFFFFF"/>
  <rect x="1142" y="426" width="300" height="192" rx="30" fill="#FFFFFF"/>
  <rect x="1142" y="642" width="300" height="192" rx="30" fill="#FFFFFF"/>
  <rect x="512" y="460" width="188" height="18" rx="9" fill="#0F172A"/>
  <rect x="512" y="520" width="64" height="242" rx="22" fill="#DBEAFE"/>
  <rect x="604" y="584" width="64" height="178" rx="22" fill="#93C5FD"/>
  <rect x="696" y="552" width="64" height="210" rx="22" fill="#60A5FA"/>
  <rect x="788" y="496" width="64" height="266" rx="22" fill="#2563EB"/>
  <rect x="880" y="618" width="64" height="144" rx="22" fill="#BFDBFE"/>
  <rect x="1176" y="460" width="130" height="18" rx="9" fill="#0F172A"/>
  <rect x="1176" y="516" width="232" height="16" rx="8" fill="#94A3B8"/>
  <rect x="1176" y="562" width="188" height="36" rx="18" fill="#F97316"/>
  <rect x="1176" y="676" width="130" height="18" rx="9" fill="#0F172A"/>
  <rect x="1176" y="732" width="232" height="16" rx="8" fill="#94A3B8"/>
  <rect x="1176" y="778" width="188" height="36" rx="18" fill="#22C55E"/>
</svg>
