<svg width="1600" height="980" viewBox="0 0 1600 980" fill="none" xmlns="http://www.w3.org/2000/svg">
  <rect width="1600" height="980" rx="48" fill="#FFF7ED"/>
  <rect x="120" y="70" width="1360" height="840" rx="42" fill="#111827"/>
  <rect x="184" y="134" width="594" height="712" rx="34" fill="#1F2937"/>
  <rect x="822" y="134" width="594" height="712" rx="34" fill="#FEFCE8"/>
  <rect x="232" y="184" width="206" height="30" rx="15" fill="#FCD34D"/>
  <rect x="232" y="242" width="494" height="76" rx="24" fill="#0F172A"/>
  <rect x="266" y="272" width="166" height="16" rx="8" fill="#F8FAFC"/>
  <rect x="590" y="260" width="102" height="40" rx="20" fill="#22C55E"/>
  <rect x="232" y="348" width="494" height="290" rx="28" fill="#0F172A"/>
  <rect x="266" y="386" width="160" height="16" rx="8" fill="#F8FAFC"/>
  <rect x="266" y="432" width="426" height="14" rx="7" fill="#475569"/>
  <rect x="266" y="472" width="426" height="14" rx="7" fill="#475569"/>
  <rect x="266" y="512" width="426" height="14" rx="7" fill="#475569"/>
  <rect x="266" y="552" width="426" height="14" rx="7" fill="#475569"/>
  <rect x="232" y="670" width="232" height="116" rx="28" fill="#F97316"/>
  <rect x="494" y="670" width="232" height="116" rx="28" fill="#FFFFFF"/>
  <rect x="878" y="184" width="214" height="24" rx="12" fill="#1F2937"/>
  <rect x="878" y="236" width="482" height="520" rx="28" fill="#FFFFFF"/>
  <rect x="920" y="286" width="188" height="18" rx="9" fill="#0F172A"/>
  <rect x="1218" y="286" width="100" height="18" rx="9" fill="#0F172A"/>
  <rect x="920" y="338" width="398" height="14" rx="7" fill="#CBD5E1"/>
  <rect x="920" y="378" width="398" height="14" rx="7" fill="#CBD5E1"/>
  <rect x="920" y="418" width="398" height="14" rx="7" fill="#CBD5E1"/>
  <rect x="920" y="458" width="398" height="14" rx="7" fill="#CBD5E1"/>
  <rect x="920" y="524" width="180" height="16" rx="8" fill="#64748B"/>
  <rect x="1204" y="520" width="114" height="24" rx="12" fill="#22C55E"/>
  <rect x="920" y="580" width="180" height="16" rx="8" fill="#64748B"/>
  <rect x="1190" y="576" width="128" height="24" rx="12" fill="#F97316"/>
  <rect x="878" y="790" width="226" height="112" rx="28" fill="#111827"/>
  <rect x="1134" y="790" width="226" height="112" rx="28" fill="#22C55E"/>
</svg>
